<svg width="45" height="28" viewBox="0 0 45 28" fill="none" xmlns="http://www.w3.org/2000/svg">
<path fill-rule="evenodd" clip-rule="evenodd" d="M43.515 9.08514C43.1484 7.91638 42.6383 6.85893 41.9209 5.93664C41.2036 5.01436 40.3268 4.34649 39.2906 3.84559C38.9957 3.68658 38.637 3.52756 38.3342 3.44806C38.3342 3.44806 38.2226 3.38445 38.1189 3.38445C38.0711 3.38445 38.0153 3.38445 37.9595 3.32879C37.9197 3.32879 37.8639 3.32879 37.8639 3.27314L37.1067 3.11412C36.5487 3.01871 35.8314 2.97101 35.0025 3.01871C33.775 3.07437 32.691 3.33675 31.7345 3.78199C30.6983 4.29084 29.8216 5.0064 29.1042 5.86509C28.3869 6.78737 27.8768 7.79712 27.5101 9.02154C27.1594 10.1823 27 11.5022 27 12.822C27 14.1975 27.1594 15.4696 27.5181 16.6384C27.8847 17.8071 28.4506 18.8646 29.1122 19.7392C29.6303 20.3514 30.1882 20.8523 30.8657 21.3134C31.1686 21.5201 31.4237 21.6712 31.7425 21.8223H31.7823C31.7823 21.8223 31.8302 21.8223 31.8302 21.87C31.8643 21.87 31.8802 21.8859 31.8949 21.9008C31.9077 21.9136 31.9196 21.9256 31.9418 21.9256C32.4598 22.18 33.0258 22.3232 33.6395 22.4345C35.4329 22.7843 36.9712 22.5378 36.9712 22.5378C37.7922 22.4345 38.5653 22.18 39.2826 21.87C40.3587 21.3611 41.2275 20.6535 41.9528 19.7869C42.6701 18.9282 43.1803 17.8548 43.5469 16.6861C43.8976 15.5173 44.057 14.2452 44.057 12.8697C44.057 11.5022 43.8498 10.2301 43.5389 9.05334L43.515 9.08514ZM31.5034 10.1982C31.7106 9.40317 31.9657 8.63195 32.3243 8.01974C32.683 7.41548 33.1453 6.90663 33.6554 6.5568C34.1735 6.19901 34.7872 6.00024 35.4488 6.00024C36.1183 6.00024 36.6842 6.14336 37.2023 6.50114C37.7124 6.85098 38.1189 7.29622 38.4776 7.86867C38.8363 8.48088 39.0993 9.14079 39.2986 9.95177C39.5138 10.7627 39.6174 11.5817 39.6174 12.496V12.7981C39.6174 13.7125 39.5138 14.6268 39.3623 15.4378C39.1551 16.2567 38.9 16.9643 38.5414 17.5845C38.1827 18.1888 37.7204 18.642 37.2023 18.9997C36.6922 19.3575 36.0864 19.5086 35.4089 19.5086C34.7394 19.5086 34.1336 19.3496 33.6156 18.9997C33.0975 18.642 32.6352 18.1888 32.2765 17.5686C31.9099 16.9643 31.6548 16.2567 31.4476 15.4378C31.2483 14.6268 31.1925 13.7125 31.1925 12.7981C31.2483 11.9236 31.3519 11.0172 31.5113 10.2062L31.5034 10.1982ZM12.1999 22.2735L10.2072 24.5554L10 24.7621L10.2072 27.5608H13.2839L16.5199 23.9511V12.4703L16.4243 11.5957L12.1999 13.7742V22.2735Z" fill="white"/>
<path fill-rule="evenodd" clip-rule="evenodd" d="M16.6772 6.01883C16.3067 4.8628 15.7914 3.81688 15.0666 2.90464C14.3419 1.9924 13.4561 1.33182 12.4092 0.836378C12.1113 0.679096 11.7489 0.521813 11.4429 0.443173C11.4429 0.443173 11.3302 0.38026 11.2255 0.38026C11.1772 0.38026 11.1288 0.38026 11.0644 0.325211C11.0242 0.325211 10.9678 0.325211 10.9678 0.270163L10.2028 0.11288C9.63909 0.0185109 8.91435 -0.028674 8.07687 0.0185109C6.83675 0.0735598 5.74158 0.333076 4.77526 0.773465C3.7284 1.27677 2.84261 1.98454 2.11786 2.83386C1.39312 3.7461 0.877747 4.74484 0.50732 5.95591C0.153 7.10407 0 8.40951 0 9.71496C0 11.0754 0.161053 12.3337 0.515373 13.4897C0.885799 14.6458 1.45754 15.6917 2.12592 16.5567C2.64934 17.1623 3.22108 17.6577 3.89751 18.1138C4.20351 18.3183 4.4612 18.4677 4.78331 18.6171H4.82357C4.82357 18.6171 4.87994 18.6171 4.87994 18.6643C4.90317 18.6643 4.91523 18.677 4.92775 18.6902C4.94128 18.7045 4.95536 18.7194 4.98463 18.7194C5.5 18.971 6.07174 19.1126 6.6918 19.2227C8.50366 19.5687 10.0578 19.3249 10.0578 19.3249C10.8873 19.2227 11.6684 18.971 12.3931 18.6643C13.4802 18.161 14.366 17.4611 15.0908 16.6039C15.8155 15.7546 16.3309 14.6929 16.7013 13.5369C17.0556 12.3809 17.2167 11.1226 17.2167 9.76214C17.2167 8.40952 17.0556 7.15126 16.6933 5.98737L16.6772 6.01883ZM4.31406 7.15225C4.51537 6.36584 4.77306 5.60302 5.13543 4.99748C5.4978 4.39981 5.96486 3.89651 6.48829 3.55049C7.00366 3.1966 7.61567 3 8.30015 3C8.97657 3 9.54832 3.14155 10.0717 3.49544C10.5791 3.84146 10.9978 4.28185 11.3602 4.84806C11.7225 5.4536 11.9802 6.10632 12.1896 6.90846C12.399 7.7106 12.5117 8.5206 12.5117 9.42498V9.72381C12.5117 10.6282 12.399 11.5326 12.2379 12.3347C12.0366 13.1447 11.7709 13.8446 11.4085 14.458C11.0542 15.0557 10.5871 15.5039 10.0717 15.8578C9.55637 16.2117 8.92826 16.3611 8.25988 16.3611C7.5754 16.3611 6.95535 16.2038 6.43192 15.8578C5.91655 15.5039 5.44949 15.0557 5.08712 14.4423C4.72474 13.8446 4.46706 13.1447 4.25769 12.3347C4.04832 11.5326 4 10.6282 4 9.72381L4.00215 9.69081C4.05783 8.83598 4.1154 7.95206 4.32211 7.16011L4.31406 7.15225ZM24.3485 0.0157433H20V19.4794H24.3485V0.0157433Z" fill="white"/>
</svg>
